HIERARCHY
ROOT hip
{
	OFFSET 0.000000 0.000000 0.000000 
	CHANNELS 6 Xposition Yposition Zposition Xrotation Zrotation Yrotation
	JOINT abdomen
	{
		OFFSET 0.000000 3.402643 0.000000 
		CHANNELS 3 Xrotation Zrotation Yrotation
		JOINT chest
		{
			OFFSET 0.000000 8.438565 -0.680529 
			CHANNELS 3 Xrotation Zrotation Yrotation
			JOINT neck
			{
				OFFSET 0.000000 10.207942 -0.272212 
				CHANNELS 3 Xrotation Zrotation Yrotation
				JOINT head
				{
					OFFSET 0.000000 3.130431 0.000000 
					CHANNELS 3 Xrotation Zrotation Yrotation
					End Site
					{
						OFFSET 0.000000 3.130435 0.000000 
					}
				}
			}
			JOINT lCollar
			{
				OFFSET 3.470700 6.669187 -0.816635 
				CHANNELS 3 Yrotation Zrotation Xrotation
				JOINT lShldr
				{
					OFFSET 3.198488 0.000000 0.000000 
					CHANNELS 3 Zrotation Yrotation Xrotation
					JOINT lForeArm
					{
						OFFSET 10.139888 0.000000 0.000000 
						CHANNELS 3 Yrotation Zrotation Xrotation
						JOINT lHand
						{
							OFFSET 8.370511 0.000000 0.000000 
							CHANNELS 3 Zrotation Yrotation Xrotation
							End Site
							{
								OFFSET 4.083176 0.000000 0.000000 
							}
						}
					}
				}
			}
			JOINT rCollar
			{
				OFFSET -3.470700 6.669187 -0.816635 
				CHANNELS 3 Yrotation Zrotation Xrotation
				JOINT rShldr
				{
					OFFSET -3.198488 0.000000 0.000000 
					CHANNELS 3 Zrotation Yrotation Xrotation
					JOINT rForeArm
					{
						OFFSET -10.139888 0.000000 0.000000 
						CHANNELS 3 Yrotation Zrotation Xrotation
						JOINT rHand
						{
							OFFSET -8.370511 0.000000 0.000000 
							CHANNELS 3 Zrotation Yrotation Xrotation
							End Site
							{
								OFFSET -4.083176 0.000000 0.000000 
							}
						}
					}
				}
			}
		}
	}
	JOINT lThigh
	{
		OFFSET 5.308129 -1.633274 1.361059 
		CHANNELS 3 Xrotation Zrotation Yrotation
		JOINT lShin
		{
			OFFSET -2.041588 -20.007561 0.000000 
			CHANNELS 3 Xrotation Zrotation Yrotation
			JOINT lFoot
			{
				OFFSET 0.000000 -19.190928 -1.224953 
				CHANNELS 3 Xrotation Yrotation Zrotation
				End Site
				{
					OFFSET 0.000000 -2.449906 4.627600 
				}
			}
		}
	}
	JOINT rThigh
	{
		OFFSET -5.308129 -1.633274 1.361059 
		CHANNELS 3 Xrotation Zrotation Yrotation
		JOINT rShin
		{
			OFFSET 2.041588 -20.007561 0.000000 
			CHANNELS 3 Xrotation Zrotation Yrotation
			JOINT rFoot
			{
				OFFSET 0.000000 -19.190928 -1.224953 
				CHANNELS 3 Xrotation Yrotation Zrotation
				End Site
				{
					OFFSET 0.000000 -2.449906 4.627600 
				}
			}
		}
	}
}
MOTION
Frames: 11
Frame Time: 0.016667
-0.136107 44.259037 1.752532 8.806110 -3.551500 -0.745286 -25.034401 1.902760 0.970523 3.721050 -1.888170 0.893185 -27.236799 -6.864250 -3.172320 -1.476420 3.296820 -2.063410 2.000000 -2.000000 0.000000 89.073502 160.216003 -0.573617 46.660599 -0.308680 0.099490 0.045163 -0.013031 -141.580002 -2.000000 2.000000 0.000000 88.229103 -19.140400 171.651001 -51.445801 0.300059 0.106920 -0.056669 0.026890 -146.570007 3.973915 3.587546 -4.912650 -14.424637 4.079901 -1.156598 0.863419 18.065575 0.110888 -2.500346 3.756174 -6.165027 3.093203 -3.861279 -0.131853 -13.132402 -6.272337 -1.923332 
-0.137505 44.251827 1.766832 8.775750 -3.445610 -0.951715 -25.062000 1.834560 1.066060 3.671730 -1.934410 0.938586 -27.623600 -7.603260 -0.386687 -1.552370 2.489830 -0.973238 2.000000 -2.000000 0.000000 89.259003 160.175995 -0.231909 46.777802 -0.308477 0.099682 0.045186 -0.013303 -141.677994 -2.000000 2.000000 0.000000 88.434303 -19.296200 171.464996 -51.582500 0.299803 0.107123 -0.056646 0.026756 -146.520996 3.968895 3.487986 -5.088972 -14.220170 4.083121 -1.147686 0.642300 18.363232 0.187684 -2.553601 3.706752 -5.957217 3.261143 -3.989743 -0.142110 -13.193646 -6.312993 -1.850879 
-0.134212 44.247196 1.776246 8.766150 -3.465010 -1.100580 -24.983200 1.822490 1.116660 3.867700 -1.880270 0.953915 -28.362600 -8.235680 2.803530 -1.629270 1.595580 0.293240 2.000000 -2.000000 0.000000 89.376404 160.459000 0.120290 46.875500 -0.308307 0.099841 0.045216 -0.013657 -141.804993 -2.000000 2.000000 0.000000 88.502602 -19.208500 171.552994 -51.602001 0.299767 0.107152 -0.056743 0.027322 -146.725998 4.018079 3.516113 -5.167323 -14.197458 4.090374 -1.138492 0.524484 18.566538 0.232352 -2.388944 3.627762 -5.777973 2.930345 -3.741994 -0.151662 -13.102846 -6.319143 -1.978417 
-0.130919 44.242432 1.785649 8.756550 -3.484400 -1.259210 -24.894600 1.810490 1.167400 4.053880 -1.825910 0.970259 -29.145901 -8.829560 6.007420 -1.717250 0.701572 1.562040 2.000000 -2.000000 0.000000 89.493896 160.740997 0.462723 46.973099 -0.308137 0.100000 0.045246 -0.014012 -141.932007 -2.000000 2.000000 0.000000 88.561203 -19.120800 171.641006 -51.611801 0.299748 0.107166 -0.056842 0.027888 -146.932007 4.067046 3.544478 -5.245611 -14.194928 4.099280 -1.139952 0.407046 18.785074 0.262542 -2.307406 3.605017 -5.634232 2.779055 -3.635824 -0.131931 -13.016567 -6.337556 -2.047631 
-0.126043 44.238445 1.793310 8.746860 -3.494140 -1.328460 -24.874201 1.776660 1.215760 4.122010 -1.854650 0.995892 -29.290400 -8.899550 7.862190 -1.590800 0.283549 2.346740 2.000000 -2.000000 0.000000 89.621002 160.925995 0.736578 47.051201 -0.308000 0.100128 0.045270 -0.014284 -142.029007 -2.000000 2.000000 0.000000 88.658798 -19.101400 171.690002 -51.504398 0.299949 0.107007 -0.056924 0.028345 -147.098007 4.115782 3.570017 -5.383244 -14.205799 4.095699 -1.129528 0.274649 18.990473 0.299406 -2.417666 3.664563 -5.564195 2.974400 -3.781452 -0.141629 -13.052410 -6.364714 -1.966152 
-0.121167 44.234447 1.800960 8.746950 -3.503800 -1.398300 -24.853800 1.742810 1.264080 4.190130 -1.883410 1.021460 -29.431101 -8.975730 9.711200 -1.474400 -0.124912 3.128670 2.000000 -2.000000 0.000000 89.738403 161.110992 1.010430 47.129398 -0.307864 0.100254 0.045297 -0.014584 -142.136993 -2.000000 2.000000 0.000000 88.746696 -19.082001 171.738998 -51.396999 0.300150 0.106847 -0.057011 0.028830 -147.272995 4.180025 3.607772 -5.510296 -14.260705 4.083593 -1.147559 0.158880 19.203926 0.339412 -2.274392 3.591887 -5.474730 2.704040 -3.570637 -0.141632 -12.983031 -6.352623 -2.075505 
-0.119886 44.227119 1.809959 8.668770 -3.514180 -1.434060 -24.930500 1.691850 1.350680 4.013230 -1.984680 1.077650 -28.819099 -9.001120 11.408900 -1.045490 -0.437170 3.887730 2.000000 -2.000000 0.000000 89.962997 161.177994 1.362150 47.139099 -0.307847 0.100270 0.045364 -0.015291 -142.391006 -2.000000 2.000000 0.000000 88.932404 -19.286600 171.542999 -51.143101 0.300622 0.106468 -0.056933 0.028399 -147.117004 4.303849 3.614677 -5.584379 -14.291605 4.083280 -1.157142 0.130031 19.318245 0.347016 -2.334568 3.681236 -5.457647 3.005113 -3.794077 -0.131702 -13.098377 -6.346292 -1.938103 
-0.118608 44.219910 1.818957 8.590500 -3.514910 -1.468330 -25.007000 1.635560 1.450440 3.836150 -2.095100 1.136960 -28.204100 -9.042220 13.111100 -0.626466 -0.749786 4.651970 2.000000 -2.000000 0.000000 90.187698 161.235992 1.723610 47.139099 -0.307847 0.100270 0.045436 -0.016026 -142.654007 -2.000000 2.000000 0.000000 89.117996 -19.491199 171.348007 -50.889099 0.301093 0.106087 -0.056851 0.027941 -146.951004 4.504515 3.609832 -5.672107 -14.356826 4.104338 -1.160272 0.053448 19.441811 0.366919 -2.278636 3.700599 -5.431450 3.050736 -3.832685 -0.132022 -13.152706 -6.300092 -1.928008 
-0.117803 44.220032 1.824810 8.561240 -3.524840 -1.438690 -24.900000 1.647230 1.425680 4.062280 -1.966450 1.099720 -27.843700 -9.080560 14.216400 -0.353533 -0.916167 5.149310 2.000000 -2.000000 0.000000 90.158798 161.714005 1.851640 46.855900 -0.308341 0.099809 0.045543 -0.017060 -143.024994 -2.000000 2.000000 0.000000 89.020302 -19.345100 171.494003 -50.703602 0.301436 0.105807 -0.056895 0.028184 -147.039001 4.555440 3.632931 -5.770730 -14.379490 4.096030 -1.158774 0.052666 19.543337 0.375006 -2.206194 3.683107 -5.444152 2.975760 -3.792333 -0.131838 -13.105676 -6.328399 -1.940513 
-0.116999 44.220306 1.830662 8.522100 -3.525200 -1.416760 -24.783300 1.667870 1.397060 4.298050 -1.837570 1.072630 -27.482800 -9.135820 15.329100 -0.090411 -1.092350 5.655700 2.000000 -2.000000 0.000000 90.129898 162.182999 1.979660 46.563000 -0.308850 0.099330 0.045657 -0.018093 -143.395996 -2.000000 2.000000 0.000000 88.922501 -19.189199 171.641006 -50.527802 0.301760 0.105541 -0.056933 0.028399 -147.117004 4.602592 3.643199 -5.880047 -14.425652 4.111465 -1.151302 0.097007 19.611712 0.353800 -2.292915 3.764811 -5.478513 3.244499 -3.990703 -0.142653 -13.145053 -6.380574 -1.839043 
-0.119340 44.231236 1.842964 8.571110 -3.534400 -1.362620 -24.666700 1.681700 1.350260 4.690250 -1.681490 1.034270 -27.083500 -9.197800 16.265301 0.123862 -1.268460 6.083430 2.000000 -2.000000 0.000000 90.149803 162.533005 2.341790 46.836399 -0.308375 0.099778 0.045626 -0.017821 -143.298996 -2.000000 2.000000 0.000000 88.795403 -18.925800 171.748993 -50.186001 0.302388 0.105021 -0.056861 0.027995 -146.970993 4.529496 3.669564 -6.091450 -14.336711 4.103578 -1.160245 0.013278 19.824095 0.386567 -2.325991 3.764502 -5.531156 3.239691 -3.982022 -0.142235 -13.118062 -6.408247 -1.862272 
